# xmcd CD database file
#
# Track frame offsets:
#	150
#	12691
#	24981
#	37921
#	51265
#	63877
#	77909
#	90924
#	105471
#	120918
#	133347
#	145033
#	159411
#	171589
#	184341
#	198790
#	211349
#	224565
#	235627
#	247798
#
# Disc length: 3460 seconds
#
# Revision: 0
# Processed by: cddbd v1.5.2PL0 Copyright (c) Steve Scherf et al.
# Submitted via: CDex 1.70beta2
#
DISCID=0a0d8214
DTITLE=Sonny Terry and Brownie Mc Ghee - 20 Légendes du Blues CD 14
DYEAR=2008
DGENRE=Blues
TTITLE0=Train Whistle Blues
TTITLE1=Harmonica Blues
TTITLE2=Shake Down Blues
TTITLE3=Bad Blood
TTITLE4=Bottom Blues
TTITLE5=Smiling And Crying The Blues
TTITLE6=Airplane Blues
TTITLE7=Custard Pie Blues
TTITLE8=Telephone Blues
TTITLE9=Dirty Mistreater, Don't You Know
TTITLE10=Crow Jane Blues
TTITLE11=Hot Headed Woman
TTITLE12=Big Legged Woman
TTITLE13=Whoopin' The Blues
TTITLE14=All Alone Blues
TTITLE15=Run Away Woman
TTITLE16=Tell Me Baby
TTITLE17=Stranger Blues
TTITLE18=Mean Old Frisco
TTITLE19=Meet You In The Morning
EXTD=YEAR: 2008
EXTT0=
EXTT1=
EXTT2=
EXTT3=
EXTT4=
EXTT5=
EXTT6=
EXTT7=
EXTT8=
EXTT9=
EXTT10=
EXTT11=
EXTT12=
EXTT13=
EXTT14=
EXTT15=
EXTT16=
EXTT17=
EXTT18=
EXTT19=
PLAYORDER=
